<?xml version="1.0" encoding="UTF-8" standalone="no"?><svg xmlns="http://www.w3.org/2000/svg" xmlns:xlink="http://www.w3.org/1999/xlink" contentStyleType="text/css" height="452px" preserveAspectRatio="none" style="width:1345px;height:452px;background:#FFFFFF;" version="1.1" viewBox="0 0 1345 452" width="1345px" zoomAndPan="magnify"><defs/><g><!--MD5=[70d7f72813f49def89ff5c36d3bf7007]
cluster Authentication Service--><g id="cluster_Authentication Service"><path d="M1110.5,121.5 L1290.5,121.5 A3.75,3.75 0 0 1 1293,124 L1300,143.7969 L1303.5,143.7969 A2.5,2.5 0 0 1 1306,146.2969 L1306,216 A2.5,2.5 0 0 1 1303.5,218.5 L1110.5,218.5 A2.5,2.5 0 0 1 1108,216 L1108,124 A2.5,2.5 0 0 1 1110.5,121.5 " fill="none" style="stroke:#000000;stroke-width:1.5;"/><line style="stroke:#000000;stroke-width:1.5;" x1="1108" x2="1300" y1="143.7969" y2="143.7969"/><text fill="#000000" font-family="sans-serif" font-size="14" font-weight="bold" lengthAdjust="spacing" textLength="179" x="1112" y="136.4951">Authentication Service</text></g><!--MD5=[2ff8c01ef33977882dcda7496024a6c5]
cluster Book Search Service--><g id="cluster_Book Search Service"><path d="M8.5,121.5 L172.5,121.5 A3.75,3.75 0 0 1 175,124 L182,143.7969 L189.5,143.7969 A2.5,2.5 0 0 1 192,146.2969 L192,216 A2.5,2.5 0 0 1 189.5,218.5 L8.5,218.5 A2.5,2.5 0 0 1 6,216 L6,124 A2.5,2.5 0 0 1 8.5,121.5 " fill="none" style="stroke:#000000;stroke-width:1.5;"/><line style="stroke:#000000;stroke-width:1.5;" x1="6" x2="182" y1="143.7969" y2="143.7969"/><text fill="#000000" font-family="sans-serif" font-size="14" font-weight="bold" lengthAdjust="spacing" textLength="163" x="10" y="136.4951">Book Search Service</text></g><!--MD5=[7345de9384db71a298481e9bb516fcbc]
cluster Book Availability & Reservation Service--><g id="cluster_Book Availability &amp; Reservation Service"><path d="M288.5,121.5 L597.5,121.5 A3.75,3.75 0 0 1 600,124 L607,143.7969 L671.5,143.7969 A2.5,2.5 0 0 1 674,146.2969 L674,216 A2.5,2.5 0 0 1 671.5,218.5 L288.5,218.5 A2.5,2.5 0 0 1 286,216 L286,124 A2.5,2.5 0 0 1 288.5,121.5 " fill="none" style="stroke:#000000;stroke-width:1.5;"/><line style="stroke:#000000;stroke-width:1.5;" x1="286" x2="607" y1="143.7969" y2="143.7969"/><text fill="#000000" font-family="sans-serif" font-size="14" font-weight="bold" lengthAdjust="spacing" textLength="308" x="290" y="136.4951">Book Availability &amp; Reservation Service</text></g><!--MD5=[7d5c8eb9b6ca0b4a4d65de59bed5c67b]
cluster Borrowing & Returning Service--><g id="cluster_Borrowing &amp; Returning Service"><path d="M700.5,121.5 L947.5,121.5 A3.75,3.75 0 0 1 950,124 L957,143.7969 L1031.5,143.7969 A2.5,2.5 0 0 1 1034,146.2969 L1034,216 A2.5,2.5 0 0 1 1031.5,218.5 L700.5,218.5 A2.5,2.5 0 0 1 698,216 L698,124 A2.5,2.5 0 0 1 700.5,121.5 " fill="none" style="stroke:#000000;stroke-width:1.5;"/><line style="stroke:#000000;stroke-width:1.5;" x1="698" x2="957" y1="143.7969" y2="143.7969"/><text fill="#000000" font-family="sans-serif" font-size="14" font-weight="bold" lengthAdjust="spacing" textLength="246" x="702" y="136.4951">Borrowing &amp; Returning Service</text></g><!--MD5=[5ab34e5ae3e0567bd05112db4981fed6]
cluster User Profile Management Service--><g id="cluster_User Profile Management Service"><path d="M882.5,242.5 L1146.5,242.5 A3.75,3.75 0 0 1 1149,245 L1156,264.7969 L1156.5,264.7969 A2.5,2.5 0 0 1 1159,267.2969 L1159,337 A2.5,2.5 0 0 1 1156.5,339.5 L882.5,339.5 A2.5,2.5 0 0 1 880,337 L880,245 A2.5,2.5 0 0 1 882.5,242.5 " fill="none" style="stroke:#000000;stroke-width:1.5;"/><line style="stroke:#000000;stroke-width:1.5;" x1="880" x2="1156" y1="264.7969" y2="264.7969"/><text fill="#000000" font-family="sans-serif" font-size="14" font-weight="bold" lengthAdjust="spacing" textLength="263" x="884" y="257.4951">User Profile Management Service</text></g><!--MD5=[412b7d5b6e1762a1f7bc3f2bf8773582]
cluster Notification Service--><g id="cluster_Notification Service"><path d="M672.5,242.5 L826.5,242.5 A3.75,3.75 0 0 1 829,245 L836,264.7969 L853.5,264.7969 A2.5,2.5 0 0 1 856,267.2969 L856,443 A2.5,2.5 0 0 1 853.5,445.5 L672.5,445.5 A2.5,2.5 0 0 1 670,443 L670,245 A2.5,2.5 0 0 1 672.5,242.5 " fill="none" style="stroke:#000000;stroke-width:1.5;"/><line style="stroke:#000000;stroke-width:1.5;" x1="670" x2="836" y1="264.7969" y2="264.7969"/><text fill="#000000" font-family="sans-serif" font-size="14" font-weight="bold" lengthAdjust="spacing" textLength="153" x="674" y="257.4951">Notification Service</text></g><!--MD5=[7a8af976516dc3a31a3825a97e447f77]
cluster Inventory Management Service--><g id="cluster_Inventory Management Service"><path d="M324.5,242.5 L570.5,242.5 A3.75,3.75 0 0 1 573,245 L580,264.7969 L580.5,264.7969 A2.5,2.5 0 0 1 583,267.2969 L583,337 A2.5,2.5 0 0 1 580.5,339.5 L324.5,339.5 A2.5,2.5 0 0 1 322,337 L322,245 A2.5,2.5 0 0 1 324.5,242.5 " fill="none" style="stroke:#000000;stroke-width:1.5;"/><line style="stroke:#000000;stroke-width:1.5;" x1="322" x2="580" y1="264.7969" y2="264.7969"/><text fill="#000000" font-family="sans-serif" font-size="14" font-weight="bold" lengthAdjust="spacing" textLength="245" x="326" y="257.4951">Inventory Management Service</text></g><!--MD5=[0bbb1139268d11cca027e7d7fc986e63]
entity Authentication API--><g id="elem_Authentication API"><rect fill="#F1F1F1" height="46.2969" rx="2.5" ry="2.5" style="stroke:#181818;stroke-width:0.5;" width="165" x="1124.5" y="156.5"/><rect fill="#F1F1F1" height="10" style="stroke:#181818;stroke-width:0.5;" width="15" x="1269.5" y="161.5"/><rect fill="#F1F1F1" height="2" style="stroke:#181818;stroke-width:0.5;" width="4" x="1267.5" y="163.5"/><rect fill="#F1F1F1" height="2" style="stroke:#181818;stroke-width:0.5;" width="4" x="1267.5" y="167.5"/><text fill="#000000" font-family="sans-serif" font-size="14" lengthAdjust="spacing" textLength="125" x="1139.5" y="189.4951">Authentication API</text></g><!--MD5=[25ab1369d4f809365ac1621f30c40db6]
entity Book Search API--><g id="elem_Book Search API"><rect fill="#F1F1F1" height="46.2969" rx="2.5" ry="2.5" style="stroke:#181818;stroke-width:0.5;" width="153" x="22.5" y="156.5"/><rect fill="#F1F1F1" height="10" style="stroke:#181818;stroke-width:0.5;" width="15" x="155.5" y="161.5"/><rect fill="#F1F1F1" height="2" style="stroke:#181818;stroke-width:0.5;" width="4" x="153.5" y="163.5"/><rect fill="#F1F1F1" height="2" style="stroke:#181818;stroke-width:0.5;" width="4" x="153.5" y="167.5"/><text fill="#000000" font-family="sans-serif" font-size="14" lengthAdjust="spacing" textLength="113" x="37.5" y="189.4951">Book Search API</text></g><!--MD5=[0bf8e3d4a16280d04ff201ed003ac095]
entity Book Availability API--><g id="elem_Book Availability API"><rect fill="#F1F1F1" height="46.2969" rx="2.5" ry="2.5" style="stroke:#181818;stroke-width:0.5;" width="173" x="302.5" y="156.5"/><rect fill="#F1F1F1" height="10" style="stroke:#181818;stroke-width:0.5;" width="15" x="455.5" y="161.5"/><rect fill="#F1F1F1" height="2" style="stroke:#181818;stroke-width:0.5;" width="4" x="453.5" y="163.5"/><rect fill="#F1F1F1" height="2" style="stroke:#181818;stroke-width:0.5;" width="4" x="453.5" y="167.5"/><text fill="#000000" font-family="sans-serif" font-size="14" lengthAdjust="spacing" textLength="133" x="317.5" y="189.4951">Book Availability API</text></g><!--MD5=[9ae26effaa1746b73a675a3c27426e8a]
entity Reservation API--><g id="elem_Reservation API"><rect fill="#F1F1F1" height="46.2969" rx="2.5" ry="2.5" style="stroke:#181818;stroke-width:0.5;" width="147" x="510.5" y="156.5"/><rect fill="#F1F1F1" height="10" style="stroke:#181818;stroke-width:0.5;" width="15" x="637.5" y="161.5"/><rect fill="#F1F1F1" height="2" style="stroke:#181818;stroke-width:0.5;" width="4" x="635.5" y="163.5"/><rect fill="#F1F1F1" height="2" style="stroke:#181818;stroke-width:0.5;" width="4" x="635.5" y="167.5"/><text fill="#000000" font-family="sans-serif" font-size="14" lengthAdjust="spacing" textLength="107" x="525.5" y="189.4951">Reservation API</text></g><!--MD5=[af3404a358e333aa931cec207e4e8a38]
entity Borrowing API--><g id="elem_Borrowing API"><rect fill="#F1F1F1" height="46.2969" rx="2.5" ry="2.5" style="stroke:#181818;stroke-width:0.5;" width="135" x="882.5" y="156.5"/><rect fill="#F1F1F1" height="10" style="stroke:#181818;stroke-width:0.5;" width="15" x="997.5" y="161.5"/><rect fill="#F1F1F1" height="2" style="stroke:#181818;stroke-width:0.5;" width="4" x="995.5" y="163.5"/><rect fill="#F1F1F1" height="2" style="stroke:#181818;stroke-width:0.5;" width="4" x="995.5" y="167.5"/><text fill="#000000" font-family="sans-serif" font-size="14" lengthAdjust="spacing" textLength="95" x="897.5" y="189.4951">Borrowing API</text></g><!--MD5=[a0e6889e34f18e6d711b02d92b3fda7d]
entity Returning API--><g id="elem_Returning API"><rect fill="#F1F1F1" height="46.2969" rx="2.5" ry="2.5" style="stroke:#181818;stroke-width:0.5;" width="133" x="714.5" y="156.5"/><rect fill="#F1F1F1" height="10" style="stroke:#181818;stroke-width:0.5;" width="15" x="827.5" y="161.5"/><rect fill="#F1F1F1" height="2" style="stroke:#181818;stroke-width:0.5;" width="4" x="825.5" y="163.5"/><rect fill="#F1F1F1" height="2" style="stroke:#181818;stroke-width:0.5;" width="4" x="825.5" y="167.5"/><text fill="#000000" font-family="sans-serif" font-size="14" lengthAdjust="spacing" textLength="93" x="729.5" y="189.4951">Returning API</text></g><!--MD5=[c4bce1bea545a1fae30ba8b30d5ce36e]
entity User Profile API--><g id="elem_User Profile API"><rect fill="#F1F1F1" height="46.2969" rx="2.5" ry="2.5" style="stroke:#181818;stroke-width:0.5;" width="143" x="896.5" y="277.5"/><rect fill="#F1F1F1" height="10" style="stroke:#181818;stroke-width:0.5;" width="15" x="1019.5" y="282.5"/><rect fill="#F1F1F1" height="2" style="stroke:#181818;stroke-width:0.5;" width="4" x="1017.5" y="284.5"/><rect fill="#F1F1F1" height="2" style="stroke:#181818;stroke-width:0.5;" width="4" x="1017.5" y="288.5"/><text fill="#000000" font-family="sans-serif" font-size="14" lengthAdjust="spacing" textLength="103" x="911.5" y="310.4951">User Profile API</text></g><!--MD5=[bddbc89e84283e4f80d4ad8e0c8acafa]
entity Notification API--><g id="elem_Notification API"><rect fill="#F1F1F1" height="46.2969" rx="2.5" ry="2.5" style="stroke:#181818;stroke-width:0.5;" width="141" x="695.5" y="383.5"/><rect fill="#F1F1F1" height="10" style="stroke:#181818;stroke-width:0.5;" width="15" x="816.5" y="388.5"/><rect fill="#F1F1F1" height="2" style="stroke:#181818;stroke-width:0.5;" width="4" x="814.5" y="390.5"/><rect fill="#F1F1F1" height="2" style="stroke:#181818;stroke-width:0.5;" width="4" x="814.5" y="394.5"/><text fill="#000000" font-family="sans-serif" font-size="14" lengthAdjust="spacing" textLength="101" x="710.5" y="416.4951">Notification API</text></g><!--MD5=[fbc03788bde7731c3451acc46b6d83b5]
entity Message Queue--><g id="elem_Message Queue"><rect fill="#F1F1F1" height="46.2969" rx="2.5" ry="2.5" style="stroke:#181818;stroke-width:0.5;" width="154" x="686" y="277.5"/><rect fill="#F1F1F1" height="10" style="stroke:#181818;stroke-width:0.5;" width="15" x="820" y="282.5"/><rect fill="#F1F1F1" height="2" style="stroke:#181818;stroke-width:0.5;" width="4" x="818" y="284.5"/><rect fill="#F1F1F1" height="2" style="stroke:#181818;stroke-width:0.5;" width="4" x="818" y="288.5"/><text fill="#000000" font-family="sans-serif" font-size="14" lengthAdjust="spacing" textLength="114" x="701" y="310.4951">Message Queue</text></g><!--MD5=[d1e0cfb1995ee388674faca42dcc5a16]
entity Inventory API--><g id="elem_Inventory API"><rect fill="#F1F1F1" height="46.2969" rx="2.5" ry="2.5" style="stroke:#181818;stroke-width:0.5;" width="128" x="388" y="277.5"/><rect fill="#F1F1F1" height="10" style="stroke:#181818;stroke-width:0.5;" width="15" x="496" y="282.5"/><rect fill="#F1F1F1" height="2" style="stroke:#181818;stroke-width:0.5;" width="4" x="494" y="284.5"/><rect fill="#F1F1F1" height="2" style="stroke:#181818;stroke-width:0.5;" width="4" x="494" y="288.5"/><text fill="#000000" font-family="sans-serif" font-size="14" lengthAdjust="spacing" textLength="88" x="403" y="310.4951">Inventory API</text></g><!--MD5=[fee662a292a0353a69bd162820bae93b]
entity User--><g id="elem_User"><ellipse cx="865" cy="14" fill="#F1F1F1" rx="8" ry="8" style="stroke:#181818;stroke-width:0.5;"/><path d="M865,22 L865,49 M852,30 L878,30 M865,49 L852,64 M865,49 L878,64 " fill="none" style="stroke:#181818;stroke-width:0.5;"/><text fill="#000000" font-family="sans-serif" font-size="14" lengthAdjust="spacing" textLength="32" x="849" y="78.4951">User</text></g><!--MD5=[832f403081fcd74f597fd23813fa47bc]
entity Librarian--><g id="elem_Librarian"><ellipse cx="239" cy="150" fill="#F1F1F1" rx="8" ry="8" style="stroke:#181818;stroke-width:0.5;"/><path d="M239,158 L239,185 M226,166 L252,166 M239,185 L226,200 M239,185 L252,200 " fill="none" style="stroke:#181818;stroke-width:0.5;"/><text fill="#000000" font-family="sans-serif" font-size="14" lengthAdjust="spacing" textLength="57" x="210.5" y="214.4951">Librarian</text></g><!--MD5=[4dc06dc6d1c97bb6f0a794870e8a8672]
link User to Authentication API--><g id="link_User_Authentication API"><path d="M881.23,47.88 C919.73,56.22 1019.2,79.56 1097,113.5 C1122.43,124.6 1149.28,140.37 1170.08,153.6 " fill="none" id="User-to-Authentication API" style="stroke:#181818;stroke-width:1.0;"/><polygon fill="#181818" points="1174.43,156.38,1169.0097,148.1568,1170.2199,153.6827,1164.6941,154.8929,1174.43,156.38" style="stroke:#181818;stroke-width:1.0;"/></g><!--MD5=[44058a019b90e3273af8c601cb5e355f]
link User to Book Search API--><g id="link_User_Book Search API"><path d="M848.95,45.07 C759.21,48.4 319.25,66.89 193,113.5 C168.77,122.44 144.88,139.1 127.25,153.3 " fill="none" id="User-to-Book Search API" style="stroke:#181818;stroke-width:1.0;"/><polygon fill="#181818" points="123.36,156.48,132.8617,153.8881,127.2336,153.3185,127.8032,147.6904,123.36,156.48" style="stroke:#181818;stroke-width:1.0;"/></g><!--MD5=[537d4508149b86f2f36972e5d8f913f2]
link User to Book Availability API--><g id="link_User_Book Availability API"><path d="M848.83,45.35 C795.94,48.56 624,62.54 493,113.5 C467.73,123.33 441.86,139.47 422.24,153.21 " fill="none" id="User-to-Book Availability API" style="stroke:#181818;stroke-width:1.0;"/><polygon fill="#181818" points="417.9,156.28,427.5589,154.3551,421.984,153.3955,422.9437,147.8206,417.9,156.28" style="stroke:#181818;stroke-width:1.0;"/></g><!--MD5=[3d6b627bb58d2ef2c43aea4e170061c7]
link User to Reservation API--><g id="link_User_Reservation API"><path d="M848.58,50.49 C818.29,61.72 751.82,87.17 698,113.5 C673.07,125.7 646.05,141.01 624.57,153.7 " fill="none" id="User-to-Reservation API" style="stroke:#181818;stroke-width:1.0;"/><polygon fill="#181818" points="620.08,156.37,629.86,155.2078,624.3775,153.8143,625.771,148.3318,620.08,156.37" style="stroke:#181818;stroke-width:1.0;"/></g><!--MD5=[7860949673806ffd796e9d8d6b99122b]
link User to Borrowing API--><g id="link_User_Borrowing API"><path d="M881.19,70.02 C896.06,93.47 918.02,128.09 933.11,151.88 " fill="none" id="User-to-Borrowing API" style="stroke:#181818;stroke-width:1.0;"/><polygon fill="#181818" points="935.85,156.19,934.4248,146.4448,933.1795,151.9629,927.6614,150.7176,935.85,156.19" style="stroke:#181818;stroke-width:1.0;"/></g><!--MD5=[272a7862339e2e5f7f165aa1a33b6771]
link User to Returning API--><g id="link_User_Returning API"><path d="M848.8,70.34 C834.08,93.82 812.46,128.32 797.61,152.01 " fill="none" id="User-to-Returning API" style="stroke:#181818;stroke-width:1.0;"/><polygon fill="#181818" points="794.92,156.3,803.087,150.7954,797.5738,152.0624,796.3068,146.5493,794.92,156.3" style="stroke:#181818;stroke-width:1.0;"/></g><!--MD5=[f16ad6b7518893611a7c428c735ed418]
link User to User Profile API--><g id="link_User_User Profile API"><path d="M881.17,45.45 C916.22,48.49 998.83,61.15 1034,113.5 C1062.01,155.19 1052.05,179.63 1034,226.5 C1026.99,244.72 1013.09,261.22 999.84,273.9 " fill="none" id="User-to-User Profile API" style="stroke:#181818;stroke-width:1.0;"/><polygon fill="#181818" points="996.13,277.37,1005.432,274.1339,999.7781,273.9508,999.9613,268.2969,996.13,277.37" style="stroke:#181818;stroke-width:1.0;"/></g><!--MD5=[ac5984b6337c6c8e56fef11b4d978bc9]
link User to Notification API--><g id="link_User_Notification API"><path d="M881.3,44.37 C954.25,44.19 1249.57,47.55 1306,113.5 C1338.65,151.66 1332.68,183.95 1306,226.5 C1240.43,331.09 1173.02,308.19 1056,347.5 C985.25,371.27 901.34,386.74 842.03,395.68 " fill="none" id="User-to-Notification API" style="stroke:#181818;stroke-width:1.0;"/><polygon fill="#181818" points="836.73,396.47,846.2234,399.092,841.6748,395.729,845.0378,391.1804,836.73,396.47" style="stroke:#181818;stroke-width:1.0;"/></g><!--MD5=[6b11feae5f13df2e7704595e3accdc4e]
link Librarian to Inventory API--><g id="link_Librarian_Inventory API"><path d="M267.66,211.69 C273.42,217.02 279.66,222.22 286,226.5 C315.71,246.58 351.84,263.25 382.81,275.56 " fill="none" id="Librarian-to-Inventory API" style="stroke:#181818;stroke-width:1.0;"/><polygon fill="#181818" points="387.73,277.5,380.8406,270.4618,383.0827,275.6554,377.8892,277.8975,387.73,277.5" style="stroke:#181818;stroke-width:1.0;"/></g><!--MD5=[c75f20cdfd6743fd9ab03a59163a0f11]
link Book Search API to Inventory API--><g id="link_Book Search API_Inventory API"><path d="M139.93,202.53 C156.16,210.73 175.18,219.69 193,226.5 C255.89,250.52 330.04,270.63 382.85,283.62 " fill="none" id="Book Search API-to-Inventory API" style="stroke:#181818;stroke-width:1.0;"/><polygon fill="#181818" points="387.9,284.86,380.1054,278.8397,383.0426,283.6742,378.2081,286.6115,387.9,284.86" style="stroke:#181818;stroke-width:1.0;"/></g><!--MD5=[b91e303ea4db5b910d4e09a3fc347f41]
link Book Availability API to Inventory API--><g id="link_Book Availability API_Inventory API"><path d="M400.7,202.6 C411.16,222.35 426.5,251.34 437.68,272.46 " fill="none" id="Book Availability API-to-Inventory API" style="stroke:#181818;stroke-width:1.0;"/><polygon fill="#181818" points="440.15,277.11,439.4639,267.2851,437.806,272.6935,432.3975,271.0355,440.15,277.11" style="stroke:#181818;stroke-width:1.0;"/></g><!--MD5=[a61ea7ff2a8fca162b85051676b49373]
link Reservation API to Inventory API--><g id="link_Reservation API_Inventory API"><path d="M559.48,202.6 C537.21,222.68 504.34,252.31 480.82,273.52 " fill="none" id="Reservation API-to-Inventory API" style="stroke:#181818;stroke-width:1.0;"/><polygon fill="#181818" points="476.84,277.11,486.2055,274.0625,480.5565,273.7652,480.8538,268.1161,476.84,277.11" style="stroke:#181818;stroke-width:1.0;"/></g><!--MD5=[86d4c0a3ee7a71f8218e5a1321e22884]
link Borrowing API to Inventory API--><g id="link_Borrowing API_Inventory API"><path d="M917.58,202.57 C902.32,211.75 883.44,221.43 865,226.5 C823.18,238.01 712.78,227.36 670,234.5 C617.11,243.33 559.01,261.07 516.09,275.8 " fill="none" id="Borrowing API-to-Inventory API" style="stroke:#181818;stroke-width:1.0;"/><polygon fill="#181818" points="511.2,277.48,521.012,278.3312,515.9275,275.8518,518.4069,270.7673,511.2,277.48" style="stroke:#181818;stroke-width:1.0;"/></g><!--MD5=[581f4756fd22d6166552d0739b800bc9]
link Returning API to Inventory API--><g id="link_Returning API_Inventory API"><path d="M732.1,202.6 C713.99,210.5 693.19,219.23 674,226.5 C623.4,245.65 565.27,264.66 521.19,278.48 " fill="none" id="Returning API-to-Inventory API" style="stroke:#181818;stroke-width:1.0;"/><polygon fill="#181818" points="516.16,280.05,525.9423,281.1935,520.9339,278.5635,523.5639,273.5552,516.16,280.05" style="stroke:#181818;stroke-width:1.0;"/></g><!--MD5=[7d1615a7168be33e01401556fffb4341]
link Reservation API to User Profile API--><g id="link_Reservation API_User Profile API"><path d="M628.66,202.54 C649.26,211.65 674.35,221.28 698,226.5 C766.66,241.64 788.59,214.51 856,234.5 C884.49,242.95 913.42,260 934.74,274.52 " fill="none" id="Reservation API-to-User Profile API" style="stroke:#181818;stroke-width:1.0;"/><polygon fill="#181818" points="938.9,277.39,933.7695,268.983,934.7865,274.5477,929.2218,275.5646,938.9,277.39" style="stroke:#181818;stroke-width:1.0;"/></g><!--MD5=[665402aebe938e3b267540d3aadfcf31]
link Borrowing API to User Profile API--><g id="link_Borrowing API_User Profile API"><path d="M953.34,202.6 C956.31,222.18 960.64,250.85 963.83,271.93 " fill="none" id="Borrowing API-to-User Profile API" style="stroke:#181818;stroke-width:1.0;"/><polygon fill="#181818" points="964.61,277.11,967.2012,267.6081,963.8529,272.1676,959.2934,268.8194,964.61,277.11" style="stroke:#181818;stroke-width:1.0;"/></g><!--MD5=[a50b2aefa4f550f1060d24ee6d83e655]
link Returning API to User Profile API--><g id="link_Returning API_User Profile API"><path d="M815.74,202.6 C847.78,223 895.31,253.24 928.72,274.5 " fill="none" id="Returning API-to-User Profile API" style="stroke:#181818;stroke-width:1.0;"/><polygon fill="#181818" points="933.13,277.31,927.6899,269.0999,928.9135,274.6228,923.3905,275.8464,933.13,277.31" style="stroke:#181818;stroke-width:1.0;"/></g><!--MD5=[95d94635e47cd7ddfab3ff7ce4ce82c5]
link Reservation API to Message Queue--><g id="link_Reservation API_Message Queue"><path d="M617.25,202.6 C647.92,223 693.42,253.24 725.4,274.5 " fill="none" id="Reservation API-to-Message Queue" style="stroke:#181818;stroke-width:1.0;"/><polygon fill="#181818" points="729.63,277.31,724.3603,268.9895,725.4697,274.5365,719.9227,275.6459,729.63,277.31" style="stroke:#181818;stroke-width:1.0;"/></g><!--MD5=[845a75a6fb84ff1e8ae21dac54ac3901]
link Borrowing API to Message Queue--><g id="link_Borrowing API_Message Queue"><path d="M915.26,202.6 C883.22,223 835.69,253.24 802.28,274.5 " fill="none" id="Borrowing API-to-Message Queue" style="stroke:#181818;stroke-width:1.0;"/><polygon fill="#181818" points="797.87,277.31,807.6095,275.8464,802.0865,274.6228,803.3101,269.0999,797.87,277.31" style="stroke:#181818;stroke-width:1.0;"/></g><!--MD5=[de9935f5efa09951305aff8883c2a47d]
link Returning API to Message Queue--><g id="link_Returning API_Message Queue"><path d="M777.66,202.6 C774.69,222.18 770.36,250.85 767.17,271.93 " fill="none" id="Returning API-to-Message Queue" style="stroke:#181818;stroke-width:1.0;"/><polygon fill="#181818" points="766.39,277.11,771.7066,268.8194,767.1471,272.1676,763.7988,267.6081,766.39,277.11" style="stroke:#181818;stroke-width:1.0;"/></g><!--MD5=[f2bf4241bb18e5e4610a2f9b4a085bc1]
link Message Queue to Notification API--><g id="link_Message Queue_Notification API"><path d="M763.64,323.56 C764.1,339.55 764.72,361.28 765.22,378.34 " fill="none" id="Message Queue-to-Notification API" style="stroke:#181818;stroke-width:1.0;"/><polygon fill="#181818" points="765.36,383.48,769.1013,374.3694,765.2172,378.482,761.1046,374.5979,765.36,383.48" style="stroke:#181818;stroke-width:1.0;"/></g><!--MD5=[96f43c6df3f76f0977feeb7ca0a3801e]
@startuml
actor User
actor Librarian

package "Authentication Service" {
  [Authentication API]
}

package "Book Search Service" {
  [Book Search API]
}

package "Book Availability & Reservation Service" {
  [Book Availability API]
  [Reservation API]
}

package "Borrowing & Returning Service" {
  [Borrowing API]
  [Returning API]
}

package "User Profile Management Service" {
  [User Profile API]
}

package "Notification Service" {
  [Notification API]
  [Message Queue]
}

package "Inventory Management Service" {
  [Inventory API]
}

User - -> [Authentication API]
User - -> [Book Search API]
User - -> [Book Availability API]
User - -> [Reservation API]
User - -> [Borrowing API]
User - -> [Returning API]
User - -> [User Profile API]
User - -> [Notification API]

Librarian - -> [Inventory API]

[Book Search API] - -> [Inventory API]
[Book Availability API] - -> [Inventory API]
[Reservation API] - -> [Inventory API]
[Borrowing API] - -> [Inventory API]
[Returning API] - -> [Inventory API]

[Reservation API] - -> [User Profile API]
[Borrowing API] - -> [User Profile API]
[Returning API] - -> [User Profile API]

[Reservation API] - -> [Message Queue]
[Borrowing API] - -> [Message Queue]
[Returning API] - -> [Message Queue]

[Message Queue] - -> [Notification API]
@enduml

PlantUML version 1.2022.7(Mon Aug 22 17:01:30 UTC 2022)
(GPL source distribution)
Java Runtime: OpenJDK Runtime Environment
JVM: OpenJDK 64-Bit Server VM
Default Encoding: UTF-8
Language: en
Country: null
--></g></svg>